<?xml version="1.0" ?><!DOCTYPE svg  PUBLIC '-//W3C//DTD SVG 1.1//EN'  'http://www.w3.org/Graphics/SVG/1.1/DTD/svg11.dtd'><svg enable-background="new 0 0 91 91" height="91px" id="Layer_1" version="1.1" viewBox="0 0 91 91" width="91px" xml:space="preserve" xmlns="http://www.w3.org/2000/svg" xmlns:xlink="http://www.w3.org/1999/xlink"><g><path d="M23.795,59.298v13.291h3.4V59.298c0-3.352,2.246-6.535,5.967-8.688c3.326,3.254,7.855,5.268,12.85,5.268   c5.045,0,9.621-2.051,12.957-5.361c3.824,2.152,6.131,5.371,6.131,8.781v13.291h3.4V59.298c0-4.49-2.756-8.643-7.332-11.414   c2.08-3.004,3.309-6.646,3.309-10.576c0-10.242-8.284-18.574-18.465-18.574c-10.178,0-18.457,8.332-18.457,18.574   c0,3.98,1.262,7.662,3.391,10.689C26.484,50.769,23.795,54.882,23.795,59.298z M46.012,22.134c8.307,0,15.064,6.807,15.064,15.174   c0,3.377-1.115,6.49-2.977,9.016c-0.016-0.006-0.027-0.016-0.042-0.02l-0.064,0.16c-2.753,3.646-7.093,6.014-11.981,6.014   c-8.303,0-15.058-6.805-15.058-15.17C30.954,28.94,37.709,22.134,46.012,22.134z"/><path d="M46.016,48.384c3.813,0,7.215-2.453,8.467-6.104l-3.215-1.102c-0.781,2.275-2.892,3.805-5.252,3.805   c-2.363,0-4.475-1.529-5.252-3.803l-3.217,1.098C38.794,45.929,42.197,48.384,46.016,48.384z"/><rect height="3.398" width="4.605" x="37.924" y="33.698"/><rect height="3.398" width="4.605" x="49.764" y="33.698"/></g></svg>